<?xml version="1.0" encoding="iso-8859-1"?>
<!-- Generator: Adobe Illustrator 16.0.0, SVG Export Plug-In . SVG Version: 6.00 Build 0)  -->
<!DOCTYPE svg PUBLIC "-//W3C//DTD SVG 1.1//EN" "http://www.w3.org/Graphics/SVG/1.1/DTD/svg11.dtd">
<svg version="1.1" id="Capa_1" xmlns="http://www.w3.org/2000/svg" xmlns:xlink="http://www.w3.org/1999/xlink" x="0px" y="0px"
	 width="48.639px" height="48.639px" viewBox="0 0 48.639 48.639" style="enable-background:new 0 0 48.639 48.639;"
	 xml:space="preserve">
<g>
	<g>
		<path d="M42.055,6.696h-8.783v-2.36C33.271,1.944,31.327,0,28.936,0h-9.232c-2.392,0-4.337,1.944-4.337,4.336v2.36H6.584
			c-2.391,0-4.336,1.945-4.336,4.336v4.617c0,1.243,1.012,2.256,2.256,2.256h3.064v26.396c0,2.392,1.945,4.338,4.336,4.338h25.38
			c2.391,0,4.336-1.946,4.336-4.338V17.905h2.515c1.244,0,2.256-1.013,2.256-2.256v-4.617C46.391,8.641,44.445,6.696,42.055,6.696z
			 M41.879,11.209v2.184H6.758v-2.184H41.879z M19.877,6.696V4.511h8.882v2.185H19.877z M37.107,17.905v26.221H12.08V17.905H37.107z
			"/>
		<path d="M24.319,42.149c1.201,0,2.177-0.976,2.177-2.177V21.758c0-1.2-0.977-2.178-2.177-2.178c-1.2,0-2.177,0.978-2.177,2.178
			v18.216C22.142,41.174,23.119,42.149,24.319,42.149z"/>
		<path d="M17.835,42.149c1.201,0,2.178-0.976,2.178-2.177V21.758c0-1.2-0.977-2.178-2.178-2.178s-2.177,0.978-2.177,2.178v18.216
			C15.658,41.174,16.634,42.149,17.835,42.149z"/>
		<path d="M30.803,42.149c1.201,0,2.178-0.976,2.178-2.177V21.758c0-1.2-0.977-2.178-2.178-2.178s-2.177,0.978-2.177,2.178v18.216
			C28.625,41.174,29.602,42.149,30.803,42.149z"/>
	</g>
</g>
<g>
</g>
<g>
</g>
<g>
</g>
<g>
</g>
<g>
</g>
<g>
</g>
<g>
</g>
<g>
</g>
<g>
</g>
<g>
</g>
<g>
</g>
<g>
</g>
<g>
</g>
<g>
</g>
<g>
</g>
</svg>
